<?xml version="1.0" encoding="UTF-8"?>
<svg version="1.1" xmlns="http://www.w3.org/2000/svg" width="591" height="590">
<path d="M0 0 C0.68658691 0.28423828 1.37317383 0.56847656 2.08056641 0.86132812 C33.03147837 13.83283502 61.94833562 31.4993007 86.42578125 54.57421875 C88.65536417 56.67523695 90.92428517 58.69467278 93.25 60.6875 C100.05715804 66.60676786 106.20322265 73.09804267 112 80 C112.44972168 80.53061035 112.89944336 81.0612207 113.36279297 81.60791016 C126.08677696 96.67979666 137.30696825 112.81845789 147 130 C147.39251953 130.68932617 147.78503906 131.37865234 148.18945312 132.08886719 C155.77594582 145.53655669 161.60862735 159.54731218 167 174 C167.30421875 174.8132373 167.6084375 175.62647461 167.921875 176.46435547 C174.9598971 195.59067851 179.49889955 215.7907743 182 236 C182.10296387 236.80308594 182.20592773 237.60617187 182.31201172 238.43359375 C186.64345153 273.52304616 184.49515079 309.71254858 176 344 C175.6289917 345.51255371 175.6289917 345.51255371 175.25048828 347.05566406 C169.9336306 368.30306897 162.29334566 388.74183782 152.00634766 408.09326172 C150.93373963 410.12554428 149.89338525 412.17245658 148.85546875 414.22265625 C130.39991517 450.35595875 102.0785789 483.18920947 69.78710938 507.64550781 C68.60230859 508.54349617 67.42125483 509.44645136 66.24414062 510.35449219 C55.69754121 518.48391871 44.57204712 525.42507229 33 532 C31.76685059 532.70406982 31.76685059 532.70406982 30.50878906 533.42236328 C1.17011895 549.98264465 -31.69400518 560.99036758 -65 566 C-66.55315918 566.26272705 -66.55315918 566.26272705 -68.13769531 566.53076172 C-80.80928833 568.43438753 -93.51211052 568.37219212 -106.30371094 568.37060547 C-110.20032613 568.37494468 -114.09577411 568.41126987 -117.9921875 568.44921875 C-194.69634851 568.79334947 -266.72224445 535.25305206 -321 482 C-329.52472218 473.42073857 -337.40925282 464.41927125 -344.67773438 454.75488281 C-346.00699452 452.99071703 -347.35447286 451.24155427 -348.703125 449.4921875 C-356.31377546 439.49895416 -362.78611261 428.90622358 -369 418 C-369.65548828 416.8560376 -369.65548828 416.8560376 -370.32421875 415.68896484 C-407.62613853 349.87977022 -415.72010623 268.87760164 -396.21484375 196.2109375 C-392.15786092 181.69396779 -387.12028463 167.76731562 -381 154 C-380.64856934 153.19691406 -380.29713867 152.39382812 -379.93505859 151.56640625 C-371.71763038 132.91931251 -361.38394093 115.1903022 -349 99 C-348.55414551 98.41283203 -348.10829102 97.82566406 -347.64892578 97.22070312 C-342.37647271 90.30395335 -336.93211708 83.62588693 -331.0390625 77.22265625 C-329.18749705 75.20437897 -327.40167 73.14650865 -325.625 71.0625 C-318.62839953 63.06638518 -311.08784396 55.82073376 -302.765625 49.21875 C-300.97211476 47.77988868 -299.20882565 46.30219405 -297.484375 44.78125 C-282.11668122 31.30081686 -264.17074503 20.28909799 -246 11 C-245.20625977 10.59088379 -244.41251953 10.18176758 -243.59472656 9.76025391 C-214.2555611 -5.20812174 -182.5994498 -14.59715126 -150 -19 C-149.17387207 -19.11714355 -148.34774414 -19.23428711 -147.49658203 -19.35498047 C-98.35460012 -26.08662179 -45.71761106 -18.97148794 0 0 Z " fill="#000000" transform="translate(406,22)"/>
<path d="M0 0 C24.49865463 12.58572407 47.38809296 33.82847655 64.4609375 55.40234375 C66.55772644 58.01080644 68.72456315 60.52455038 70.93481445 63.03564453 C121.75 121.00871243 121.75 121.00871243 121.75 140.25 C122.41 140.25 123.07 140.25 123.75 140.25 C124.0078125 139.39792969 124.265625 138.54585937 124.53125 137.66796875 C132.43636688 115.4981698 150.25923398 93.55437989 164.75 75.25 C165.28463867 74.57404785 165.81927734 73.8980957 166.37011719 73.20166016 C172.22547066 65.834098 178.17434326 58.57905265 184.5546875 51.65625 C186.39401133 49.64019399 188.17957571 47.59412133 189.9609375 45.52734375 C209.98516552 22.59749289 239.75611287 -6.61397691 271.984375 -8.98828125 C282.16675347 -9.20324257 289.63793309 -7.58328155 297.25 -0.5703125 C309.021531 13.71493085 304.87377201 37.1019842 303.3125 54.0625 C303.03903243 57.08950308 302.76987452 60.11686029 302.50390625 63.14453125 C302.43773605 63.89204651 302.37156586 64.63956177 302.3033905 65.409729 C301.8385351 70.81215166 301.51482676 76.21369814 301.2421875 81.62890625 C300.88694075 88.59195683 300.25555604 95.4638404 299.3125 102.375 C299.04127398 104.42572935 298.7704413 106.47651077 298.5 108.52734375 C298.30470703 109.99083252 298.30470703 109.99083252 298.10546875 111.48388672 C297.78895021 113.94690529 297.50750575 116.40914241 297.25 118.87890625 C295.14175866 138.85800664 287.68549791 157.14358853 272.125 170.4375 C255.58585474 182.99405967 236.37697467 187.32750152 216.0625 187.875 C214.27682617 187.93300781 214.27682617 187.93300781 212.45507812 187.9921875 C209.55352947 188.08540995 206.65197034 188.17121348 203.75 188.25 C204.57854492 188.45979492 204.57854492 188.45979492 205.42382812 188.67382812 C225.00361473 193.71882699 246.58953903 200.83267308 258.75 218.25 C264.79453893 228.67053326 266.97338515 239.74530255 263.87890625 251.58203125 C262.67270062 254.59952271 261.31532768 257.40286063 259.75 260.25 C259.2653125 261.13816406 258.780625 262.02632813 258.28125 262.94140625 C251.74915754 273.94029722 242.84660431 284.37615559 232.75 292.25 C231.8940625 292.95382812 231.038125 293.65765625 230.15625 294.3828125 C215.91066721 305.67971283 201.20635889 312.64718468 182.75 311.25 C168.10749068 308.89176277 157.32605932 298.42879004 148.875 286.9375 C140.93144998 275.77837386 134.30916082 263.16762232 129.75 250.25 C129.40453125 249.33992188 129.0590625 248.42984375 128.703125 247.4921875 C126.686299 242.12859951 125.01536321 236.83868749 123.75 231.25 C123.09 231.25 122.43 231.25 121.75 231.25 C121.4096875 233.10625 121.4096875 233.10625 121.0625 235 C119.69544038 241.08105831 117.25638869 246.562915 114.75 252.25 C114.15244797 253.66355672 113.55616639 255.07765096 112.9609375 256.4921875 C104.23900655 276.97688501 93.00958303 297.17901526 72.75 308.25 C60.05444477 313.26629256 47.03201929 312.41946408 34.59814453 307.11425781 C12.27229174 296.67389865 -9.15549084 275.48255996 -17.59375 252.23828125 C-17.8103125 251.58214844 -18.026875 250.92601562 -18.25 250.25 C-18.745 248.765 -18.745 248.765 -19.25 247.25 C-20.19867079 234.55958419 -18.60529192 224.31998747 -10.2109375 214.3671875 C3.095737 200.00022021 20.77871226 192.10588628 39.75 188.25 C38.85394043 188.21036133 37.95788086 188.17072266 37.03466797 188.12988281 C33.63794078 187.97157005 30.24262596 187.79816477 26.84716797 187.61523438 C25.39107918 187.53972636 23.93468456 187.46985659 22.47802734 187.40625 C0.68177934 186.44354477 -18.11074537 179.71024619 -33.6484375 163.79296875 C-49.94631016 145.24231847 -52.88199686 122.47333649 -54.25 98.625 C-54.777747 90.08628395 -55.33753107 81.56935322 -56.25 73.0625 C-62.36826744 15.21263929 -62.36826744 15.21263929 -52.703125 1.03515625 C-38.89841389 -15.92385713 -16.78173317 -8.2540755 0 0 Z " fill="#FDFDFD" transform="translate(172.25,144.75)"/>
</svg>
